<svg xmlns="http://www.w3.org/2000/svg"
    xmlns:xlink="http://www.w3.org/1999/xlink" version="1.1" x="0px" y="0px" viewBox="0 0 1024 1280" style="enable-background:new 0 0 1024 1024;" xml:space="preserve">
    <g>
        <g>
            <path d="M875.1,915.1c-11.6-5.3-23.2-10.7-34.8-16c-27.9-12.8-55.9-25.7-83.8-38.5    c-33.6-15.4-67.2-30.9-100.8-46.3c-28.9-13.3-57.8-26.6-86.7-39.9c-13.8-6.3-27.6-12.8-41.4-19c-6.5-2.9-12.3-4.7-19.6-3.8    c-4.2,0.6-7.8,2.1-11.6,3.8c-1.5,0.7-3,1.4-4.4,2c-7.1,3.3-14.3,6.6-21.4,9.9c-26.2,12-52.4,24.1-78.6,36.1    c-33.4,15.4-66.8,30.7-100.2,46.1c-30.3,13.9-60.7,27.9-91,41.8c-16.5,7.6-33,15.2-49.5,22.8c-0.8,0.4-1.5,0.7-2.3,1.1    c15,8.6,30.1,17.3,45.1,25.9c0-7.2,0-14.3,0-21.5c0-19.5,0-38.9,0-58.4c0-28.8,0-57.5,0-86.3c0-35,0-70.1,0-105.1    c0-38.3,0-76.7,0-115c0-38.5,0-76.9,0-115.4c0-35.9,0-71.8,0-107.7c0-30.2,0-60.4,0-90.6c0-21.5,0-43,0-64.4c0-9.8,0-19.5,0-29.3    c0-3.1,0.2-6.1,0.5-9.1c-0.4,2.7-0.7,5.3-1.1,8c0.8-5.8,2.3-11.3,4.6-16.7c-1,2.4-2,4.8-3,7.2c1.5-3.4,3.2-6.7,5.3-9.8    c0.1-0.2,1.6-2.7,1.9-2.7c0.1,0-5,6.1-2.3,3c1.3-1.5,2.6-2.9,3.9-4.3c1.2-1.2,2.5-2.4,3.8-3.5c1.9-1.7,4.7-2.4-2.5,1.9    c0.7-0.4,1.4-1,2.1-1.5c3.3-2.2,6.7-4,10.3-5.6c-2.4,1-4.8,2-7.2,3c5.4-2.2,11-3.8,16.7-4.6c-2.7,0.4-5.3,0.7-8,1.1    c7.3-0.9,14.7-0.5,22-0.5c13.5,0,27,0,40.6,0c45.6,0,91.2,0,136.8,0c55.5,0,111.1,0,166.6,0c47.8,0,95.6,0,143.4,0    c22.4,0,44.9-0.2,67.3,0c2.9,0,5.9,0.2,8.8,0.5c-2.7-0.4-5.3-0.7-8-1.1c5.8,0.8,11.3,2.3,16.7,4.6c-2.4-1-4.8-2-7.2-3    c3.4,1.5,6.7,3.2,9.8,5.3c0.2,0.1,2.7,1.6,2.7,1.9c0,0.1-6.1-5-3-2.3c1.5,1.3,2.9,2.6,4.3,3.9c1.2,1.2,2.4,2.5,3.5,3.8    c1.7,1.9,2.4,4.7-1.9-2.5c0.4,0.7,1,1.4,1.5,2.1c2.2,3.3,4,6.7,5.6,10.3c-1-2.4-2-4.8-3-7.2c2.2,5.4,3.8,11,4.6,16.7    c-0.4-2.7-0.7-5.3-1.1-8c1.1,9.1,0.5,18.5,0.5,27.7c0,18.9,0,37.8,0,56.7c0,28.4,0,56.7,0,85.1c0,34.8,0,69.6,0,104.4    c0,38.2,0,76.5,0,114.7c0,38.5,0,77,0,115.5c0,36.1,0,72.3,0,108.4c0,30.6,0,61.1,0,91.7c0,22,0,44,0,66c0,10.4-0.1,20.9,0,31.3    c0,0.4,0,0.9,0,1.3c0,15.7,13.8,30.7,30,30c16.3-0.7,30-13.2,30-30c0-14,0-28,0-41.9c0-36.2,0-72.4,0-108.6c0-49.9,0-99.7,0-149.6    c0-54.9,0-109.9,0-164.8c0-51.4,0-102.8,0-154.2c0-39.3,0-78.6,0-117.9c0-18.6,0-37.3,0-55.9c-0.1-33.2-16.7-64.1-45.2-81.5    C828,56.1,809,53,789.7,53c-29.3,0-58.5,0-87.8,0c-50,0-100,0-150,0c-54,0-108.1,0-162.1,0c-41.4,0-82.7,0-124.1,0    c-30.6,0-63.2-3.1-89.7,15.6c-26.5,18.6-41.9,47.2-41.9,79.7c0,6.4,0,12.9,0,19.3c0,30.4,0,60.8,0,91.3c0,46.7,0,93.3,0,140    c0,54.3,0,108.6,0,162.9c0,53.4,0,106.8,0,160.1c0,43.9,0,87.7,0,131.6c0,25.8,0,51.5,0,77.3c0,3.4,0,6.8,0,10.3    c0,10.6,5.7,20.6,14.9,25.9c10,5.8,20.3,4.6,30.3,0c11.5-5.3,23-10.6,34.5-15.8c27.8-12.8,55.5-25.5,83.3-38.3    c33.4-15.4,66.9-30.8,100.3-46.1c29-13.4,58.1-26.7,87.1-40.1c14.1-6.5,28.3-12.6,42.2-19.4c0.2-0.1,0.4-0.2,0.6-0.3    c-10.1,0-20.2,0-30.3,0c11.5,5.3,23,10.6,34.5,15.8c27.8,12.8,55.5,25.5,83.3,38.3c33.4,15.4,66.9,30.8,100.3,46.1    c29,13.4,58.1,26.7,87.1,40.1c14.1,6.5,28.1,13,42.2,19.4c0.2,0.1,0.4,0.2,0.6,0.3c7.5,3.5,14.9,5.3,23.1,3    c7-1.9,14.5-7.3,17.9-13.8C892.9,942.9,890.4,922.1,875.1,915.1z"/>
        </g>
    </g>
    <text x="0" y="1039" fill="#fff" font-size="5px" font-weight="bold" font-family="'Helvetica Neue', Helvetica, Arial-Unicode, Arial, Sans-serif">Created by shashank singh</text>
    <text x="0" y="1044" fill="#fff" font-size="5px" font-weight="bold" font-family="'Helvetica Neue', Helvetica, Arial-Unicode, Arial, Sans-serif">from the Noun Project</text>
</svg>